<svg width="16" height="19" viewBox="0 0 16 19" fill="none" xmlns="http://www.w3.org/2000/svg">
<path d="M10.5583 0.841667H5.55835V2.50833H10.5583V0.841667ZM7.22502 11.675H8.89168V6.675H7.22502V11.675ZM13.9167 6.15833L15.1 4.975C14.7417 4.55 14.35 4.15 13.925 3.8L12.7417 4.98333C11.45 3.95 9.82502 3.33333 8.05835 3.33333C3.91668 3.33333 0.55835 6.69167 0.55835 10.8333C0.55835 14.975 3.90835 18.3333 8.05835 18.3333C12.2083 18.3333 15.5583 14.975 15.5583 10.8333C15.5583 9.075 14.9417 7.45 13.9167 6.15833ZM8.05835 16.675C4.83335 16.675 2.22502 14.0667 2.22502 10.8417C2.22502 7.61667 4.83335 5.00833 8.05835 5.00833C11.2833 5.00833 13.8917 7.61667 13.8917 10.8417C13.8917 14.0667 11.2833 16.675 8.05835 16.675Z" fill="#F6FFFF"/>
</svg>
