<svg width="68" height="68" viewBox="0 0 68 68" fill="none" xmlns="http://www.w3.org/2000/svg">
<path d="M42.6334 20.6667L34.0001 29.3L25.3667 20.6667L20.6667 25.3667L29.3001 34L20.6667 42.6334L25.3667 47.3334L34.0001 38.7L42.6334 47.3334L47.3334 42.6334L38.7001 34L47.3334 25.3667L42.6334 20.6667ZM34.0001 0.666687C15.5667 0.666687 0.666748 15.5667 0.666748 34C0.666748 52.4334 15.5667 67.3334 34.0001 67.3334C52.4334 67.3334 67.3334 52.4334 67.3334 34C67.3334 15.5667 52.4334 0.666687 34.0001 0.666687ZM34.0001 60.6667C19.3001 60.6667 7.33342 48.7 7.33342 34C7.33342 19.3 19.3001 7.33335 34.0001 7.33335C48.7001 7.33335 60.6668 19.3 60.6668 34C60.6668 48.7 48.7001 60.6667 34.0001 60.6667Z" fill="#047575"/>
</svg>
