<svg width="23" height="17" viewBox="0 0 23 17" fill="none" xmlns="http://www.w3.org/2000/svg">
<path d="M10.5055 3.96137C10.208 3.67313 9.73319 3.68062 9.44495 3.9781C9.15671 4.27558 9.1642 4.75039 9.46168 5.03863L13.034 8.5L9.46168 11.9614C9.1642 12.2496 9.15671 12.7244 9.44495 13.0219C9.73319 13.3194 10.208 13.3269 10.5055 13.0386L14.1118 9.54432L17.7181 13.0386C18.0156 13.3269 18.4904 13.3194 18.7786 13.0219C19.0669 12.7244 19.0594 12.2496 18.7619 11.9614L15.1896 8.5L18.7619 5.03863C19.0594 4.75039 19.0669 4.27558 18.7786 3.9781C18.4904 3.68062 18.0156 3.67313 17.7181 3.96137L14.1118 7.45568L10.5055 3.96137ZM8.52013 1.25H21C21.6904 1.25 22.25 1.80964 22.25 2.5V14.5C22.25 15.1904 21.6904 15.75 21 15.75H8.52013C8.17938 15.75 7.85341 15.6109 7.61764 15.3649L1.86764 9.36488C1.40429 8.88138 1.40429 8.11862 1.86764 7.63512L7.61764 1.63512C7.85341 1.3891 8.17938 1.25 8.52013 1.25Z" stroke="black" stroke-width="1.5" stroke-linecap="round"/>
</svg>
