<svg width="224" height="41" viewBox="0 0 224 41" fill="none" xmlns="http://www.w3.org/2000/svg">
<path fill-rule="evenodd" clip-rule="evenodd" d="M0.575642 0C0.89356 0 1.15128 0.254949 1.15128 0.569444V40.4306C1.15128 40.7451 0.89356 41 0.575642 41C0.257724 41 0 40.7451 0 40.4306V0.569444C0 0.254949 0.257724 0 0.575642 0Z" fill="#AFD7D7"/>
<path d="M14.2608 39.1019C13.6212 39.1019 13.1415 38.912 12.8217 38.5324C12.5339 38.1211 12.358 37.615 12.2941 37.0139L8.45645 3.70139C8.39249 3.13194 8.55239 2.68904 8.93615 2.37269C9.31992 2.05633 9.76764 1.89815 10.2793 1.89815C10.9189 1.89815 11.3666 2.08796 11.6225 2.46759C11.9103 2.84722 12.0862 3.32176 12.1502 3.8912L14.8365 27.1435L17.9545 3.74884C18.0185 3.21103 18.1784 2.76813 18.4342 2.42014C18.7221 2.07215 19.1698 1.89815 19.7774 1.89815C20.3531 1.89815 20.7688 2.07215 21.0246 2.42014C21.3125 2.76813 21.4883 3.21103 21.5523 3.74884L24.6704 27.1435L27.3567 3.8912C27.4207 3.32176 27.5965 2.84722 27.8844 2.46759C28.1722 2.08796 28.6199 1.89815 29.2275 1.89815C29.7712 1.89815 30.2189 2.05633 30.5707 2.37269C30.9545 2.68904 31.1144 3.13194 31.0504 3.70139L27.2128 37.0139C27.1488 37.615 26.9569 38.1211 26.6371 38.5324C26.3493 38.912 25.8856 39.1019 25.246 39.1019C24.6064 39.1019 24.1267 38.912 23.8069 38.5324C23.4871 38.1211 23.2952 37.615 23.2313 37.0139L19.7774 12.0532L16.2756 37.0139C16.2116 37.615 16.0197 38.1211 15.6999 38.5324C15.3801 38.912 14.9004 39.1019 14.2608 39.1019Z" fill="#639999"/>
<path fill-rule="evenodd" clip-rule="evenodd" d="M38.9312 0C39.2492 0 39.5069 0.254949 39.5069 0.569444V40.4306C39.5069 40.7451 39.2492 41 38.9312 41C38.6133 41 38.3556 40.7451 38.3556 40.4306V0.569444C38.3556 0.254949 38.6133 0 38.9312 0Z" fill="#AFD7D7"/>
<path d="M57.4957 39.1019C55.5769 39.1019 53.9619 38.7064 52.6507 37.9155C51.3715 37.093 50.3322 36.0174 49.5326 34.6887C48.7651 33.3283 48.1735 31.8414 47.7578 30.228C47.374 28.5829 47.1182 26.9221 46.9902 25.2454C46.8623 23.5687 46.7984 22.0185 46.7984 20.5949C46.7984 19.1397 46.8623 17.5737 46.9902 15.897C47.1501 14.1887 47.422 12.512 47.8057 10.8669C48.2215 9.22184 48.8291 7.73495 49.6286 6.40625C50.4281 5.04591 51.4834 3.95448 52.7946 3.13194C54.1058 2.30941 55.7368 1.89815 57.6876 1.89815C59.5744 1.89815 61.1414 2.30941 62.3887 3.13194C63.6679 3.95448 64.6912 5.04591 65.4587 6.40625C66.2263 7.76659 66.8019 9.26929 67.1857 10.9144C67.5694 12.5594 67.8253 14.2203 67.9532 15.897C68.0811 17.5421 68.1451 19.0606 68.1451 20.4525C68.1451 21.8762 68.0811 23.4263 67.9532 25.103C67.8253 26.7797 67.5534 28.4406 67.1377 30.0856C66.7539 31.7307 66.1623 33.2334 65.3628 34.5938C64.5953 35.9541 63.5719 37.0455 62.2927 37.8681C61.0135 38.6906 59.4145 39.1019 57.4957 39.1019ZM57.4477 34.8785C59.2386 34.8785 60.5818 34.1192 61.4772 32.6007C62.0848 31.5884 62.5166 30.3387 62.7724 28.8519C63.0602 27.3333 63.2521 25.799 63.3481 24.2488C63.444 22.6987 63.492 21.37 63.492 20.2627C63.492 19.4718 63.46 18.4911 63.396 17.3206C63.364 16.1501 63.2521 14.9163 63.0602 13.6192C62.8684 12.3221 62.5486 11.1042 62.1008 9.96528C61.6851 8.82639 61.0935 7.90895 60.3259 7.21296C59.5584 6.48534 58.583 6.12153 57.3998 6.12153C56.2485 6.12153 55.3051 6.46952 54.5695 7.16551C53.834 7.82986 53.2423 8.69985 52.7946 9.77546C52.3789 10.8511 52.0751 12.0216 51.8832 13.287C51.6913 14.5208 51.5634 15.7072 51.4994 16.8461C51.4674 17.985 51.4515 18.934 51.4515 19.6933C51.4515 20.8322 51.4834 22.2083 51.5474 23.8218C51.6433 25.4035 51.8192 26.9695 52.0751 28.5197C52.3629 30.0698 52.7786 31.3669 53.3223 32.4109C54.1858 34.0559 55.5609 34.8785 57.4477 34.8785Z" fill="#639999"/>
<path fill-rule="evenodd" clip-rule="evenodd" d="M76.0122 0C76.3301 0 76.5878 0.254949 76.5878 0.569444V40.4306C76.5878 40.7451 76.3301 41 76.0122 41C75.6943 41 75.4365 40.7451 75.4365 40.4306V0.569444C75.4365 0.254949 75.6943 0 76.0122 0Z" fill="#AFD7D7"/>
<path d="M86.1339 38.7697C85.2704 38.7697 84.6788 38.5008 84.359 37.963C84.0392 37.4252 83.8793 36.7766 83.8793 36.0174V6.16898C83.8793 5.09336 84.263 4.17593 85.0306 3.41667C85.8301 2.62577 86.7735 2.23032 87.8608 2.23032H93.8571C96.0317 2.23032 97.9185 2.54668 99.5175 3.1794C101.149 3.78048 102.412 4.77701 103.307 6.16898C104.203 7.52932 104.65 9.3642 104.65 11.6736C104.65 14.2677 103.915 16.2608 102.444 17.6528C101.005 19.0448 99.0698 20.0096 96.6393 20.5475C97.4708 20.7689 98.2703 21.0694 99.0378 21.4491C99.8373 21.7971 100.493 22.3032 101.005 22.9676C101.548 23.6319 102.012 24.5652 102.396 25.7674C102.78 26.9695 103.099 28.2033 103.355 29.4688C103.643 30.7025 103.867 31.7307 104.027 32.5532C104.187 33.1543 104.363 33.8187 104.554 34.5463C104.746 35.2739 104.842 35.9541 104.842 36.5868C104.842 37.3461 104.618 37.8997 104.171 38.2477C103.755 38.5957 103.179 38.7697 102.444 38.7697C101.644 38.7697 101.037 38.4691 100.621 37.8681C100.205 37.267 99.9013 36.4761 99.7094 35.4954C99.5175 34.5147 99.3417 33.439 99.1818 32.2685C99.0538 31.0664 98.862 29.88 98.6061 28.7095C98.3823 27.5073 98.0145 26.4159 97.5028 25.4352C97.0231 24.4545 96.3195 23.6636 95.3921 23.0625C94.4647 22.4614 93.2495 22.1609 91.7464 22.1609H88.3885V36.0174C88.3885 36.7766 88.2286 37.4252 87.9088 37.963C87.589 38.5008 86.9973 38.7697 86.1339 38.7697ZM88.3885 18.1273H92.1301C93.6012 18.1273 94.9284 17.9375 96.1117 17.5579C97.2949 17.1466 98.2383 16.4664 98.9419 15.5174C99.6455 14.5683 99.9973 13.3029 99.9973 11.7211C99.9973 9.72801 99.3736 8.32022 98.1264 7.49769C96.9112 6.67515 95.3761 6.26389 93.5213 6.26389H90.4032C89.7956 6.26389 89.2999 6.43789 88.9161 6.78588C88.5644 7.13387 88.3885 7.62423 88.3885 8.25694V18.1273Z" fill="#639999"/>
<path fill-rule="evenodd" clip-rule="evenodd" d="M112.709 0C113.027 0 113.285 0.254949 113.285 0.569444V40.4306C113.285 40.7451 113.027 41 112.709 41C112.391 41 112.134 40.7451 112.134 40.4306V0.569444C112.134 0.254949 112.391 0 112.709 0Z" fill="#AFD7D7"/>
<path d="M124.366 38.4375C123.311 38.4375 122.415 38.0737 121.68 37.3461C120.944 36.5868 120.576 35.6852 120.576 34.6412V6.3588C120.576 5.34645 120.944 4.46065 121.68 3.70139C122.415 2.94213 123.295 2.5625 124.318 2.5625H127.772C130.522 2.5625 132.777 3.05286 134.536 4.03357C136.327 5.01427 137.734 6.34298 138.757 8.01968C139.78 9.69637 140.5 11.6103 140.916 13.7616C141.331 15.8812 141.539 18.1115 141.539 20.4525C141.539 22.5089 141.363 24.5968 141.012 26.7164C140.66 28.836 140.02 30.7816 139.093 32.5532C138.197 34.3248 136.934 35.7485 135.303 36.8241C133.672 37.8997 131.578 38.4375 129.019 38.4375H124.366ZM126.812 34.2616H128.156C130.074 34.2616 131.609 33.8187 132.761 32.9329C133.912 32.0471 134.776 30.9082 135.351 29.5162C135.959 28.0926 136.359 26.5741 136.55 24.9606C136.774 23.3156 136.886 21.7654 136.886 20.3102C136.886 18.8866 136.774 17.3997 136.55 15.8495C136.359 14.2677 135.959 12.7967 135.351 11.4363C134.776 10.0444 133.912 8.9213 132.761 8.06713C131.641 7.18133 130.17 6.73843 128.348 6.73843H126.765C126.189 6.73843 125.757 6.92824 125.469 7.30787C125.213 7.65586 125.086 8.09877 125.086 8.63657V32.3634C125.086 32.8696 125.229 33.3125 125.517 33.6921C125.805 34.0718 126.237 34.2616 126.812 34.2616Z" fill="#639999"/>
<path fill-rule="evenodd" clip-rule="evenodd" d="M149.406 0C149.724 0 149.982 0.254949 149.982 0.569444V40.4306C149.982 40.7451 149.724 41 149.406 41C149.089 41 148.831 40.7451 148.831 40.4306V0.569444C148.831 0.254949 149.089 0 149.406 0Z" fill="#AFD7D7"/>
<path d="M161.111 38.7697C160.088 38.7697 159.192 38.4217 158.425 37.7257C157.657 36.9981 157.274 36.1123 157.274 35.0683V5.03009C157.274 4.2392 157.433 3.57485 157.753 3.03704C158.105 2.49923 158.729 2.23032 159.624 2.23032C160.52 2.23032 161.127 2.49923 161.447 3.03704C161.799 3.57485 161.975 4.2392 161.975 5.03009V33.1227C161.975 34.0401 162.438 34.4988 163.366 34.4988H175.934C176.669 34.4988 177.293 34.657 177.805 34.9734C178.316 35.2581 178.572 35.8117 178.572 36.6343C178.572 37.4252 178.316 37.9788 177.805 38.2951C177.293 38.6115 176.669 38.7697 175.934 38.7697H161.111Z" fill="#639999"/>
<path fill-rule="evenodd" clip-rule="evenodd" d="M186.439 0C186.757 0 187.015 0.254949 187.015 0.569444V40.4306C187.015 40.7451 186.757 41 186.439 41C186.121 41 185.864 40.7451 185.864 40.4306V0.569444C185.864 0.254949 186.121 0 186.439 0Z" fill="#AFD7D7"/>
<path d="M198.096 38.4375C197.041 38.4375 196.145 38.0737 195.41 37.3461C194.674 36.5868 194.306 35.6852 194.306 34.6412V6.3588C194.306 5.34645 194.674 4.46065 195.41 3.70139C196.177 2.94213 197.073 2.5625 198.096 2.5625H213.015C213.75 2.5625 214.358 2.72068 214.838 3.03704C215.317 3.32176 215.557 3.85957 215.557 4.65046C215.557 5.44136 215.317 5.99498 214.838 6.31134C214.358 6.59607 213.75 6.73843 213.015 6.73843H200.734C199.455 6.73843 198.816 7.37114 198.816 8.63657V17.985H210.233C210.968 17.985 211.576 18.1431 212.055 18.4595C212.567 18.7442 212.823 19.282 212.823 20.0729C212.823 20.8638 212.567 21.4174 212.055 21.7338C211.576 22.0185 210.968 22.1609 210.233 22.1609H198.816V32.3634C198.816 33.6289 199.455 34.2616 200.734 34.2616H213.015C213.75 34.2616 214.358 34.4198 214.838 34.7361C215.317 35.0208 215.557 35.5586 215.557 36.3495C215.557 37.1404 215.317 37.6941 214.838 38.0104C214.358 38.2951 213.75 38.4375 213.015 38.4375H198.096Z" fill="#639999"/>
<path fill-rule="evenodd" clip-rule="evenodd" d="M223.424 0C223.742 0 224 0.254949 224 0.569444V40.4306C224 40.7451 223.742 41 223.424 41C223.106 41 222.849 40.7451 222.849 40.4306V0.569444C222.849 0.254949 223.106 0 223.424 0Z" fill="#AFD7D7"/>
</svg>
